<svg width="49" height="5" viewBox="0 0 49 5" fill="none" xmlns="http://www.w3.org/2000/svg">
<path d="M0.33 3.89C0.343333 3.83 0.353333 3.75 0.36 3.65C0.366667 3.55 0.371667 3.44833 0.375 3.345C0.378333 3.24167 0.38 3.15667 0.38 3.09V0.4H1.27V3C1.27 3.1 1.26167 3.19167 1.245 3.275C1.23167 3.355 1.22 3.41667 1.21 3.46L1.11 3.28C1.14333 3.28667 1.18 3.29333 1.22 3.3C1.26333 3.30333 1.30833 3.305 1.355 3.305C1.50833 3.305 1.63 3.28333 1.72 3.24C1.81333 3.19667 1.88333 3.13333 1.93 3.05C1.97667 2.96667 2.01 2.86333 2.03 2.74L2.39 0.4H3.275L2.89 2.85C2.85333 3.09 2.78833 3.28833 2.695 3.445C2.605 3.59833 2.48833 3.72 2.345 3.81C2.205 3.89667 2.03667 3.95833 1.84 3.995C1.64667 4.02833 1.42667 4.045 1.18 4.045C1.04 4.045 0.9 4.03667 0.76 4.02C0.62 4.00333 0.483333 3.98 0.35 3.95L0.33 3.89ZM3.82727 0.4H4.71727V4H3.82727V0.4ZM6.59766 2.77H5.95766V2.01H6.54766C6.71099 2.01 6.83599 1.97667 6.92266 1.91C7.01266 1.84333 7.07766 1.74667 7.11766 1.62L7.54766 0.4H8.42766V0.455L7.90766 1.845C7.84766 2.01833 7.75599 2.175 7.63266 2.315C7.50932 2.455 7.36099 2.56667 7.18766 2.65C7.01432 2.73 6.81766 2.77 6.59766 2.77ZM5.48266 4V0.4H6.36766V4H5.48266ZM7.43766 2.31L8.48766 3.945V4H7.53766L6.72266 2.63L7.43766 2.31ZM9.4684 3.145V2.425H10.3134C10.4801 2.425 10.6151 2.39 10.7184 2.32C10.8251 2.24667 10.9034 2.15333 10.9534 2.04C11.0034 1.92667 11.0284 1.805 11.0284 1.675C11.0284 1.49167 10.9751 1.35667 10.8684 1.27C10.7651 1.18333 10.6267 1.14 10.4534 1.14H9.4684V0.4H10.4584C10.7851 0.4 11.0551 0.451667 11.2684 0.555C11.4851 0.655 11.6467 0.798333 11.7534 0.985C11.8634 1.17167 11.9184 1.39167 11.9184 1.645C11.9184 1.87833 11.8751 2.08833 11.7884 2.275C11.7017 2.45833 11.5834 2.615 11.4334 2.745C11.2867 2.875 11.1184 2.975 10.9284 3.045C10.7384 3.11167 10.5401 3.145 10.3334 3.145H9.4684ZM8.9884 4V0.4H9.8784V4H8.9884ZM11.0484 4L10.3284 2.96L11.1584 2.82L12.0284 3.95V4H11.0484ZM12.3868 4L12.7868 1.64C12.8301 1.38 12.9001 1.16667 12.9968 1C13.0935 0.833333 13.2135 0.703333 13.3568 0.61C13.5035 0.516667 13.6751 0.451667 13.8718 0.415C14.0685 0.378333 14.2885 0.36 14.5318 0.36C14.6718 0.36 14.8235 0.368333 14.9868 0.385C15.1501 0.401666 15.2985 0.425 15.4318 0.455L15.4418 0.515C15.4285 0.575 15.4185 0.655 15.4118 0.755C15.4085 0.855 15.4051 0.956667 15.4018 1.06C15.4018 1.16333 15.4018 1.24833 15.4018 1.315V4H14.5168V1.405C14.5168 1.30833 14.5201 1.22 14.5268 1.14C14.5368 1.05667 14.5485 0.981667 14.5618 0.915L14.6768 1.13C14.6401 1.12 14.5901 1.11333 14.5268 1.11C14.4668 1.10333 14.4101 1.1 14.3568 1.1C14.2001 1.1 14.0751 1.12167 13.9818 1.165C13.8885 1.205 13.8168 1.26667 13.7668 1.35C13.7201 1.43333 13.6851 1.54 13.6618 1.67L13.2768 4H12.3868ZM13.0268 3.08V2.37H14.9268V3.08H13.0268ZM16.1661 4V0.4H16.9161L18.1611 2.445L17.7961 2.45L19.0211 0.4H19.7711V4H18.8861V1.675L19.0661 1.725L18.1811 3.195H17.7561L16.8711 1.745L17.0561 1.695V4H16.1661ZM20.2514 3.27H20.3064C20.353 3.29 20.408 3.305 20.4714 3.315C20.5347 3.325 20.6014 3.33 20.6714 3.33C20.8547 3.33 20.993 3.28833 21.0864 3.205C21.183 3.11833 21.2314 2.98333 21.2314 2.8V0.4H22.1214V2.84C22.1214 3.12667 22.063 3.36 21.9464 3.54C21.833 3.71667 21.6764 3.84833 21.4764 3.935C21.2764 4.01833 21.0497 4.06 20.7964 4.06C20.6997 4.06 20.6014 4.05333 20.5014 4.04C20.4047 4.03 20.3214 4.01667 20.2514 4V3.27ZM22.8409 4V0.4H23.7309V4H22.8409ZM23.3209 4V3.23H25.2809V4H23.3209ZM23.3209 2.56V1.83H24.9809V2.56H23.3209ZM23.3209 1.17V0.4H25.2359V1.17H23.3209ZM25.9073 4V0.4H26.7973V4H25.9073ZM26.3873 4V3.23H28.3473V4H26.3873ZM26.3873 2.56V1.83H28.0473V2.56H26.3873ZM26.3873 1.17V0.4H28.3023V1.17H26.3873ZM28.713 0.4H31.693V1.17H30.643V4H29.758V1.17H28.713V0.4ZM33.2439 3.08H33.2939C33.3772 3.12333 33.4772 3.165 33.5939 3.205C33.7105 3.245 33.8372 3.27833 33.9739 3.305C34.1139 3.32833 34.2539 3.34 34.3939 3.34C34.5405 3.34 34.6622 3.33 34.7589 3.31C34.8589 3.29 34.9339 3.25833 34.9839 3.215C35.0372 3.16833 35.0639 3.10667 35.0639 3.03C35.0639 2.93333 35.0305 2.86167 34.9639 2.815C34.9005 2.76833 34.7855 2.73167 34.6189 2.705L34.2889 2.655C34.0422 2.61833 33.8322 2.555 33.6589 2.465C33.4889 2.375 33.3605 2.25667 33.2739 2.11C33.1872 1.96 33.1439 1.78 33.1439 1.57C33.1439 1.31333 33.2039 1.09333 33.3239 0.91C33.4472 0.726666 33.6339 0.586667 33.8839 0.49C34.1339 0.39 34.4539 0.34 34.8439 0.34C35.0172 0.34 35.1839 0.355 35.3439 0.385C35.5039 0.411666 35.6372 0.448333 35.7439 0.495V1.25H35.6889C35.5889 1.20333 35.4605 1.16 35.3039 1.12C35.1472 1.08 34.9722 1.06 34.7789 1.06C34.6122 1.06 34.4705 1.07667 34.3539 1.11C34.2405 1.14333 34.1539 1.195 34.0939 1.265C34.0339 1.33167 34.0039 1.41667 34.0039 1.52C34.0039 1.65333 34.0472 1.74833 34.1339 1.805C34.2205 1.86167 34.3605 1.90667 34.5539 1.94L34.8689 1.99C35.0655 2.02 35.2439 2.07333 35.4039 2.15C35.5672 2.22667 35.6955 2.33333 35.7889 2.47C35.8855 2.60667 35.9339 2.78667 35.9339 3.01C35.9339 3.2 35.8939 3.36333 35.8139 3.5C35.7339 3.63333 35.6222 3.74167 35.4789 3.825C35.3389 3.905 35.1755 3.96333 34.9889 4C34.8055 4.04 34.6072 4.06 34.3939 4.06C34.2439 4.06 34.0955 4.05 33.9489 4.03C33.8055 4.01333 33.6722 3.99 33.5489 3.96C33.4255 3.93 33.3239 3.89833 33.2439 3.865V3.08ZM36.4884 0.4H37.3784V4H36.4884V0.4ZM38.1388 4V0.4H38.8488L40.6338 2.205V3.37L38.7738 1.49L39.0288 1.385V4H38.1388ZM40.3388 4V0.4H41.2238V4H40.3388ZM41.8164 2.215C41.8164 1.845 41.8948 1.52 42.0514 1.24C42.2114 0.956667 42.4448 0.736667 42.7514 0.58C43.0581 0.42 43.4348 0.34 43.8814 0.34C44.0648 0.34 44.2298 0.353333 44.3764 0.38C44.5231 0.406667 44.6348 0.436667 44.7114 0.47V1.235H44.6564C44.5831 1.195 44.4798 1.16167 44.3464 1.135C44.2131 1.105 44.0698 1.09 43.9164 1.09C43.5164 1.09 43.2164 1.18667 43.0164 1.38C42.8198 1.57333 42.7214 1.85667 42.7214 2.23C42.7214 2.46 42.7631 2.65833 42.8464 2.825C42.9298 2.98833 43.0481 3.11333 43.2014 3.2C43.3548 3.28667 43.5364 3.33 43.7464 3.33C43.8464 3.33 43.9314 3.32 44.0014 3.3C44.0714 3.28 44.1331 3.245 44.1864 3.195L44.0214 3.66V2.16H44.8364V3.86C44.7064 3.92 44.5464 3.96833 44.3564 4.005C44.1698 4.04167 43.9631 4.06 43.7364 4.06C43.3098 4.06 42.9548 3.98333 42.6714 3.83C42.3881 3.67667 42.1748 3.46167 42.0314 3.185C41.8881 2.905 41.8164 2.58167 41.8164 2.215ZM47.7607 4V0.4H48.6457V4H47.7607ZM45.5607 4V0.4H46.4507V4H45.5607ZM46.0407 2.58V1.81H48.1707V2.58H46.0407Z" fill="white"/>
</svg>
